<svg width="76" height="23" viewBox="0 0 76 23" fill="none" xmlns="http://www.w3.org/2000/svg">
<path d="M27.916 14.543C27.916 15.0573 27.8607 15.5098 27.75 15.9004C27.6458 16.2845 27.5059 16.6165 27.3301 16.8965C27.1608 17.1699 26.9688 17.3978 26.7539 17.5801C26.5391 17.7559 26.3177 17.8958 26.0898 18C25.8685 18.1042 25.6536 18.1758 25.4453 18.2148C25.2435 18.2604 25.0677 18.2832 24.918 18.2832C24.8398 18.2832 24.7324 18.2767 24.5957 18.2637C24.459 18.2572 24.3027 18.2376 24.127 18.2051C23.9512 18.1725 23.7559 18.1237 23.541 18.0586C23.3327 18 23.1113 17.9154 22.877 17.8047L22.9844 15.3438C23.3685 15.6693 23.7103 15.8874 24.0098 15.998C24.3158 16.1087 24.5729 16.1641 24.7812 16.1641C25.1849 16.1641 25.4876 16.0176 25.6895 15.7246C25.8978 15.4316 26.002 15.0508 26.002 14.582C26.002 14.2695 25.9238 13.9212 25.7676 13.5371C25.6178 13.1465 25.3477 12.7266 24.957 12.2773C24.6901 11.9648 24.4134 11.6393 24.127 11.3008C23.8405 10.9622 23.5801 10.6009 23.3457 10.2168C23.1113 9.83268 22.9193 9.41927 22.7695 8.97656C22.6198 8.53385 22.5449 8.05534 22.5449 7.54102C22.5449 6.88997 22.6328 6.32682 22.8086 5.85156C22.9909 5.3763 23.2318 4.98242 23.5312 4.66992C23.8307 4.35742 24.1725 4.1263 24.5566 3.97656C24.9473 3.82031 25.3542 3.74219 25.7773 3.74219C26.1484 3.74219 26.526 3.79427 26.9102 3.89844C27.3008 3.99609 27.6914 4.14909 28.082 4.35742L27.8965 6.81836C27.7272 6.60352 27.5482 6.43424 27.3594 6.31055C27.1771 6.18034 26.998 6.08268 26.8223 6.01758C26.653 5.95247 26.4935 5.91016 26.3438 5.89062C26.2005 5.87109 26.0801 5.86133 25.9824 5.86133C25.7936 5.86133 25.6178 5.91016 25.4551 6.00781C25.2988 6.09896 25.1621 6.22591 25.0449 6.38867C24.9342 6.54492 24.8464 6.73372 24.7812 6.95508C24.7161 7.16992 24.6836 7.39779 24.6836 7.63867C24.6836 8.00977 24.7617 8.34505 24.918 8.64453C25.0807 8.94401 25.2826 9.24023 25.5234 9.5332C25.7643 9.82617 26.0215 10.1289 26.2949 10.4414C26.5749 10.7474 26.8353 11.0957 27.0762 11.4863C27.3171 11.8704 27.5156 12.3132 27.6719 12.8145C27.8346 13.3092 27.916 13.8854 27.916 14.543ZM32.877 17.9414C32.9225 17.6159 32.9616 17.2806 32.9941 16.9355C33.0267 16.5905 33.056 16.2454 33.082 15.9004C33.1081 15.5553 33.1309 15.2168 33.1504 14.8848C33.1699 14.5527 33.1862 14.237 33.1992 13.9375C33.2253 13.2409 33.2448 12.554 33.2578 11.877C33.2578 11.3171 33.235 10.8743 33.1895 10.5488C33.1439 10.2168 33.082 9.96615 33.0039 9.79688C32.9323 9.62109 32.8477 9.50716 32.75 9.45508C32.6523 9.40299 32.5547 9.37695 32.457 9.37695C32.3268 9.37695 32.2031 9.39974 32.0859 9.44531C31.9688 9.48438 31.8581 9.56901 31.7539 9.69922C31.6562 9.82943 31.5651 10.015 31.4805 10.2559C31.4023 10.4902 31.334 10.8027 31.2754 11.1934C31.2168 11.584 31.1712 12.0625 31.1387 12.6289C31.1126 13.1888 31.0996 13.8594 31.0996 14.6406C31.0996 14.9271 31.0996 15.2266 31.0996 15.5391C31.0996 15.8516 31.0996 16.1478 31.0996 16.4277C31.1061 16.7012 31.1094 16.9453 31.1094 17.1602C31.1159 17.3685 31.1257 17.515 31.1387 17.5996L28.9316 17.5801C28.9642 16.3887 28.987 15.2103 29 14.0449C29.013 12.873 29.0195 11.6914 29.0195 10.5C29.0195 9.43229 29.013 8.37435 29 7.32617C28.9935 6.27148 28.9772 5.21029 28.9512 4.14258L31.4121 4.08398C31.373 4.52018 31.3372 4.93034 31.3047 5.31445C31.2721 5.69206 31.2428 6.06315 31.2168 6.42773C31.1973 6.78581 31.181 7.14388 31.168 7.50195C31.1549 7.85352 31.1452 8.2181 31.1387 8.5957C31.3405 8.26367 31.5618 8.00651 31.8027 7.82422C32.0501 7.64193 32.2845 7.50521 32.5059 7.41406C32.7337 7.32292 32.9323 7.26758 33.1016 7.24805C33.2708 7.22852 33.3815 7.21875 33.4336 7.21875C33.8242 7.21875 34.1465 7.34896 34.4004 7.60938C34.6543 7.86979 34.8529 8.2181 34.9961 8.6543C35.1458 9.09049 35.25 9.59505 35.3086 10.168C35.3672 10.7409 35.3965 11.3398 35.3965 11.9648C35.3965 12.4727 35.3802 12.9902 35.3477 13.5176C35.3216 14.0449 35.2891 14.5625 35.25 15.0703C35.2109 15.5781 35.1719 16.0664 35.1328 16.5352C35.0938 17.0039 35.0612 17.4336 35.0352 17.8242L32.877 17.9414ZM42.252 11.7793C42.252 12.8079 42.2454 13.8366 42.2324 14.8652C42.2259 15.8939 42.2064 16.9648 42.1738 18.0781L40.4746 17.9805V16.6621C40.2793 17.0137 40.0579 17.2839 39.8105 17.4727C39.5632 17.6549 39.3288 17.7917 39.1074 17.8828C38.847 17.987 38.5898 18.0456 38.3359 18.0586C38.0234 18.0586 37.7305 17.9902 37.457 17.8535C37.1836 17.7103 36.946 17.5215 36.7441 17.2871C36.5423 17.0527 36.3828 16.7858 36.2656 16.4863C36.1549 16.1803 36.0996 15.8646 36.0996 15.5391C36.0996 15.168 36.1777 14.8034 36.334 14.4453C36.4967 14.0807 36.7702 13.752 37.1543 13.459C37.6686 13.0618 38.1146 12.7298 38.4922 12.4629C38.8698 12.196 39.1823 11.9551 39.4297 11.7402C39.6836 11.5189 39.8691 11.3105 39.9863 11.1152C40.11 10.9134 40.1719 10.6823 40.1719 10.4219C40.1719 9.99219 40.1003 9.67318 39.957 9.46484C39.8138 9.25 39.625 9.14258 39.3906 9.14258C39.2474 9.14258 39.1237 9.18164 39.0195 9.25977C38.9219 9.33138 38.8405 9.42904 38.7754 9.55273C38.7168 9.66992 38.6712 9.80339 38.6387 9.95312C38.6126 10.0964 38.5996 10.2396 38.5996 10.3828C38.5996 10.4805 38.6029 10.5879 38.6094 10.7051C38.6224 10.8223 38.6452 10.946 38.6777 11.0762L36.4316 11.1152C36.4186 11.0046 36.4089 10.9004 36.4023 10.8027C36.3958 10.6986 36.3926 10.5977 36.3926 10.5C36.3926 10.0964 36.4609 9.69922 36.5977 9.30859C36.7344 8.91146 36.9329 8.5599 37.1934 8.25391C37.4603 7.94141 37.7826 7.69076 38.1602 7.50195C38.5378 7.31315 38.9707 7.21875 39.459 7.21875C40.0905 7.21875 40.5885 7.35221 40.9531 7.61914C41.3242 7.87956 41.6042 8.22461 41.793 8.6543C41.9883 9.08398 42.112 9.57227 42.1641 10.1191C42.2227 10.6595 42.252 11.2129 42.252 11.7793ZM40.0547 14.543C40.0872 14.3802 40.1165 14.1947 40.1426 13.9863C40.1686 13.8105 40.1914 13.599 40.2109 13.3516C40.2305 13.0977 40.2467 12.8145 40.2598 12.502C40.1556 12.6452 40.0547 12.7721 39.957 12.8828C39.8594 12.9935 39.7682 13.0911 39.6836 13.1758C39.5859 13.2734 39.4948 13.3613 39.4102 13.4395C39.2604 13.5632 39.1009 13.7031 38.9316 13.8594C38.7624 14.0091 38.6061 14.1686 38.4629 14.3379C38.3262 14.5072 38.209 14.6829 38.1113 14.8652C38.0202 15.041 37.9746 15.2135 37.9746 15.3828C37.9746 15.5651 38.0365 15.7344 38.1602 15.8906C38.2839 16.0404 38.4368 16.1152 38.6191 16.1152C38.7559 16.1152 38.8958 16.0762 39.0391 15.998C39.1888 15.9199 39.3288 15.8092 39.459 15.666C39.5957 15.5228 39.7161 15.3568 39.8203 15.168C39.9245 14.9792 40.0026 14.7708 40.0547 14.543ZM49.2441 11.9844C49.0358 12.0169 48.8177 12.056 48.5898 12.1016C48.3945 12.1406 48.1732 12.1927 47.9258 12.2578C47.6784 12.3229 47.431 12.3978 47.1836 12.4824C47.2487 12.1569 47.291 11.8737 47.3105 11.6328C47.3366 11.3854 47.3496 11.1608 47.3496 10.959C47.3496 10.6074 47.3171 10.334 47.252 10.1387C47.1934 9.93685 47.125 9.78711 47.0469 9.68945C46.9688 9.5918 46.8906 9.5332 46.8125 9.51367C46.7409 9.49414 46.6921 9.48438 46.666 9.48438C46.4577 9.48438 46.2884 9.57227 46.1582 9.74805C46.028 9.91732 45.9271 10.1452 45.8555 10.4316C45.7839 10.7116 45.735 11.0339 45.709 11.3984C45.6829 11.763 45.6699 12.1374 45.6699 12.5215C45.6699 12.7949 45.6732 13.0684 45.6797 13.3418C45.6862 13.6152 45.696 13.8887 45.709 14.1621L45.8457 18L43.5898 18.1562C43.5898 16.5872 43.5736 15.1745 43.541 13.918C43.515 12.6549 43.4857 11.5775 43.4531 10.6855C43.4141 9.64388 43.3717 8.71615 43.3262 7.90234L45.25 7.77539L45.3477 8.87891C45.5169 8.46224 45.7155 8.13346 45.9434 7.89258C46.1777 7.64518 46.4089 7.46289 46.6367 7.3457C46.8711 7.22201 47.0827 7.14388 47.2715 7.11133C47.4668 7.07878 47.6133 7.0625 47.7109 7.0625C48.043 7.0625 48.3132 7.16992 48.5215 7.38477C48.7298 7.5931 48.8926 7.86328 49.0098 8.19531C49.127 8.52734 49.2051 8.89193 49.2441 9.28906C49.2897 9.6862 49.3125 10.0703 49.3125 10.4414C49.3125 10.7344 49.3027 11.0143 49.2832 11.2812C49.2702 11.5417 49.2572 11.776 49.2441 11.9844ZM55.5332 17.7363C54.9277 17.9447 54.3743 18.0814 53.873 18.1465C53.3783 18.2116 52.9714 18.2441 52.6523 18.2441C52.2552 18.2441 51.9069 18.166 51.6074 18.0098C51.3079 17.8535 51.0475 17.6452 50.8262 17.3848C50.6113 17.1243 50.4323 16.8249 50.2891 16.4863C50.1458 16.1413 50.0319 15.7799 49.9473 15.4023C49.8626 15.0247 49.8008 14.6439 49.7617 14.2598C49.7292 13.8691 49.7129 13.5013 49.7129 13.1562C49.7129 12.2969 49.7812 11.5059 49.918 10.7832C50.0547 10.054 50.2533 9.42578 50.5137 8.89844C50.7741 8.37109 51.0964 7.96094 51.4805 7.66797C51.8646 7.36849 52.3008 7.21875 52.7891 7.21875C53.1927 7.21875 53.5605 7.31966 53.8926 7.52148C54.2246 7.72331 54.5078 8.03255 54.7422 8.44922C54.9766 8.86589 55.1556 9.39648 55.2793 10.041C55.4095 10.679 55.4746 11.4375 55.4746 12.3164C55.4746 12.5638 55.4681 12.8145 55.4551 13.0684C55.4486 13.3223 55.4323 13.5859 55.4062 13.8594L51.9492 14.3184C51.9753 14.5592 52.0143 14.7871 52.0664 15.002C52.125 15.2168 52.1999 15.4089 52.291 15.5781C52.3887 15.7409 52.5026 15.8711 52.6328 15.9688C52.763 16.0664 52.9225 16.1152 53.1113 16.1152C53.4629 16.1152 53.8145 16.0957 54.166 16.0566C54.5176 16.0111 54.8854 15.959 55.2695 15.9004L55.5332 17.7363ZM51.8906 12.6582L53.5117 12.3555V11.9844C53.5117 11.431 53.4694 11.0046 53.3848 10.7051C53.3001 10.3991 53.209 10.1745 53.1113 10.0312C52.9941 9.86198 52.8607 9.76432 52.7109 9.73828C52.5221 9.75781 52.3724 9.8457 52.2617 10.002C52.151 10.1582 52.0664 10.36 52.0078 10.6074C51.9557 10.8483 51.9232 11.1217 51.9102 11.4277C51.8971 11.7337 51.8906 12.043 51.8906 12.3555V12.6582ZM62.5938 7.84375C62.5938 8.2474 62.5482 8.66406 62.457 9.09375C62.3724 9.52344 62.2357 9.93685 62.0469 10.334C61.8646 10.7311 61.6302 11.0957 61.3438 11.4277C61.0573 11.7598 60.7155 12.0299 60.3184 12.2383C60.7025 12.4076 61.0052 12.6191 61.2266 12.873C61.4544 13.127 61.627 13.3906 61.7441 13.6641C61.8613 13.931 61.9362 14.1882 61.9688 14.4355C62.0013 14.6764 62.0176 14.8717 62.0176 15.0215C62.0176 15.5163 61.9427 15.9427 61.793 16.3008C61.6497 16.6523 61.4642 16.9518 61.2363 17.1992C61.0085 17.4401 60.7513 17.6354 60.4648 17.7852C60.1849 17.9284 59.9049 18.0391 59.625 18.1172C59.3516 18.1953 59.0944 18.2441 58.8535 18.2637C58.6126 18.2897 58.4206 18.3027 58.2773 18.3027C58.0951 18.2962 57.9095 18.2799 57.7207 18.2539C57.5579 18.2279 57.3822 18.1888 57.1934 18.1367C57.0111 18.0911 56.8451 18.0195 56.6953 17.9219C56.7344 16.6849 56.7539 15.4512 56.7539 14.2207C56.7539 12.5475 56.7148 10.8939 56.6367 9.25977C56.5651 7.62565 56.4577 5.97852 56.3145 4.31836C56.6139 4.22721 56.9102 4.1556 57.2031 4.10352C57.5026 4.05143 57.7728 4.01237 58.0137 3.98633C58.2936 3.96029 58.5605 3.94401 58.8145 3.9375C59.0163 3.9375 59.2474 3.96354 59.5078 4.01562C59.7747 4.0612 60.0482 4.14583 60.3281 4.26953C60.6081 4.38672 60.8815 4.54297 61.1484 4.73828C61.4219 4.92708 61.666 5.16797 61.8809 5.46094C62.0957 5.7474 62.2682 6.08919 62.3984 6.48633C62.5286 6.87695 62.5938 7.32943 62.5938 7.84375ZM60.6992 8.2832C60.6992 8.28971 60.6992 8.23438 60.6992 8.11719C60.6992 7.99349 60.6829 7.84049 60.6504 7.6582C60.6243 7.4694 60.5755 7.26432 60.5039 7.04297C60.4388 6.82161 60.3379 6.61328 60.2012 6.41797C60.0645 6.22266 59.8854 6.05339 59.6641 5.91016C59.4492 5.76042 59.179 5.66927 58.8535 5.63672C58.8145 6.71094 58.7754 7.7819 58.7363 8.84961C58.7038 9.91732 58.6777 10.9883 58.6582 12.0625C58.8926 11.9779 59.1009 11.8574 59.2832 11.7012C59.472 11.5449 59.6348 11.3724 59.7715 11.1836C59.9147 10.9883 60.0352 10.7832 60.1328 10.5684C60.2305 10.347 60.3151 10.1289 60.3867 9.91406C60.5495 9.41276 60.6536 8.86914 60.6992 8.2832ZM60.1523 14.7578C60.1393 14.4388 60.0742 14.1491 59.957 13.8887C59.9049 13.778 59.8431 13.6673 59.7715 13.5566C59.6999 13.4395 59.6087 13.3353 59.498 13.2441C59.3939 13.1465 59.2702 13.0651 59.127 13C58.9837 12.9284 58.821 12.8763 58.6387 12.8438C58.6191 13.5273 58.6029 14.2077 58.5898 14.8848C58.5768 15.5553 58.5703 16.2324 58.5703 16.916C58.7656 16.8444 58.9382 16.7598 59.0879 16.6621C59.2376 16.5579 59.3678 16.4505 59.4785 16.3398C59.5892 16.2227 59.6803 16.1022 59.752 15.9785C59.8301 15.8548 59.8952 15.7344 59.9473 15.6172C60.0645 15.3438 60.1328 15.0573 60.1523 14.7578ZM69.1074 12.4043C69.1074 13.1986 69.0716 13.8952 69 14.4941C68.9284 15.0931 68.8242 15.6139 68.6875 16.0566C68.5573 16.4928 68.3978 16.8574 68.209 17.1504C68.0267 17.4368 67.8216 17.668 67.5938 17.8438C67.3724 18.0195 67.1315 18.1432 66.8711 18.2148C66.6107 18.2865 66.3438 18.3223 66.0703 18.3223C65.7969 18.3223 65.5332 18.293 65.2793 18.2344C65.0319 18.1758 64.8008 18.0684 64.5859 17.9121C64.3711 17.7559 64.1725 17.5443 63.9902 17.2773C63.8145 17.0104 63.6647 16.6686 63.541 16.252C63.4173 15.8353 63.3197 15.3372 63.248 14.7578C63.1829 14.1784 63.1504 13.498 63.1504 12.7168C63.1504 11.5449 63.235 10.5846 63.4043 9.83594C63.5801 9.08724 63.8079 8.49805 64.0879 8.06836C64.3678 7.63216 64.6868 7.33268 65.0449 7.16992C65.403 7.00065 65.7708 6.91602 66.1484 6.91602C66.3893 6.91602 66.6302 6.94206 66.8711 6.99414C67.1185 7.03971 67.3496 7.13411 67.5645 7.27734C67.7858 7.42057 67.9909 7.61914 68.1797 7.87305C68.3685 8.12695 68.5312 8.45898 68.668 8.86914C68.8047 9.27279 68.9121 9.76432 68.9902 10.3438C69.0684 10.9232 69.1074 11.61 69.1074 12.4043ZM67.0078 12.4824C67.0078 11.8574 66.985 11.3464 66.9395 10.9492C66.8939 10.5456 66.832 10.2266 66.7539 9.99219C66.6758 9.75781 66.5814 9.59831 66.4707 9.51367C66.36 9.42253 66.2396 9.37695 66.1094 9.37695C65.9596 9.37695 65.8294 9.44206 65.7188 9.57227C65.6081 9.69596 65.5137 9.89779 65.4355 10.1777C65.3639 10.4577 65.3086 10.819 65.2695 11.2617C65.2305 11.6979 65.2109 12.2318 65.2109 12.8633C65.2109 13.5013 65.2337 14.0319 65.2793 14.4551C65.3314 14.8717 65.3997 15.207 65.4844 15.4609C65.5755 15.7083 65.6797 15.8841 65.7969 15.9883C65.9206 16.0924 66.0508 16.1445 66.1875 16.1445C66.474 16.1445 66.6823 15.8483 66.8125 15.2559C66.9427 14.6634 67.0078 13.7389 67.0078 12.4824ZM73.5703 18.0781C73.4076 17.5964 73.2415 17.1276 73.0723 16.6719C72.9095 16.2096 72.737 15.7441 72.5547 15.2754C72.3854 15.7311 72.2194 16.1901 72.0566 16.6523C71.8939 17.1081 71.7376 17.5703 71.5879 18.0391L69.3906 17.9219C69.7812 17.0885 70.1589 16.265 70.5234 15.4512C70.8945 14.6374 71.2493 13.8073 71.5879 12.9609C71.2363 12.1276 70.8783 11.3073 70.5137 10.5C70.1556 9.6862 69.7943 8.86589 69.4297 8.03906L71.7148 7.80469C71.9492 8.69661 72.2292 9.56901 72.5547 10.4219C72.6914 9.9987 72.8314 9.57227 72.9746 9.14258C73.1243 8.71289 73.2643 8.26693 73.3945 7.80469L75.6504 7.98047C75.2598 8.80729 74.8887 9.62435 74.5371 10.4316C74.1855 11.2389 73.8372 12.056 73.4922 12.8828C73.8242 13.7096 74.1595 14.5169 74.498 15.3047C74.8431 16.0924 75.1882 16.89 75.5332 17.6973L73.5703 18.0781Z" fill="#E6E6E6"/>
<path d="M17.43 7.15262V19.0003C17.4298 19.5468 16.9863 19.9894 16.4398 19.9895H3.27472C2.72805 19.9895 2.28464 19.5469 2.28448 19.0003V7.15262H17.43Z" fill="#E6E6E6" stroke="#313131" stroke-width="0.02"/>
<rect x="0.1" y="2.1" width="19.5143" height="4.94286" rx="0.9" fill="#E6E6E6" stroke="#4E4E4E" stroke-width="0.2"/>
</svg>
